<svg xmlns="http://www.w3.org/2000/svg" width="255" height="86" viewBox="0 0 255 86" fill="none"><path d="M62.2886 0.254443C52.0529 0.398608 43.6452 0.516847 43.6019 0.531263C43.5587 0.54568 47.6025 4.61969 52.5805 9.59771L61.6182 18.6341L77.1087 18.6788L92.5848 18.7221L93.5334 19.0578C94.7067 19.4489 95.7827 20.0865 96.6892 20.9276C97.5958 21.7688 98.312 22.7943 98.7897 23.935C100.834 28.4459 99.0968 34.1404 95.0674 36.1688C93.3302 37.0338 92.8775 37.1031 87.9859 37.1175C84.1612 37.1319 83.416 37.1752 82.7456 37.3957C81.3732 37.8484 80.8614 38.6514 81.2708 39.7312C81.4452 40.1983 85.7529 44.5923 91.5642 50.2551C96.7037 55.2476 96.5133 55.1308 98.4697 54.4893C99.0824 54.2846 100.776 53.5264 102.218 52.8257C111.182 48.4316 116.438 42.2555 118.059 34.1823C118.463 31.6536 118.566 29.0858 118.366 26.5329C117.583 20.0263 115.028 13.8599 110.979 8.70689C107.607 4.72073 101.664 1.83025 94.3653 0.633685C89.7506 -0.14048 90.6704 -0.126153 62.2886 0.254443Z" fill="#252525"></path><path d="M17.034 0.795079C5.45609 0.939244 1.25224 1.04313 0.988414 1.17432C0.766512 1.29652 0.591569 1.48891 0.491087 1.72145C0.390606 1.95399 0.370365 2.21348 0.433453 2.45882C0.491119 2.66209 3.98135 6.269 8.44902 10.7223L16.3781 18.6513H53.0219L43.9698 9.59931L34.9105 0.547119L33.8148 0.56155C33.2208 0.575966 25.6594 0.678305 17.034 0.795079Z" fill="#252525"></path><path d="M65.7055 43.0023C62.815 45.8063 60.158 48.433 59.7774 48.8424C58.9744 49.6887 58.8144 50.1861 59.0912 50.7844C59.2079 51.0035 66.755 58.6097 75.8662 67.6618C90.571 82.2758 92.5245 84.1743 93.2395 84.48C93.9978 84.8159 94.276 84.8449 98.4957 84.9616C104.627 85.1519 114.322 85.0495 114.992 84.7856C115.268 84.7212 115.525 84.5936 115.743 84.4129C115.961 84.2322 116.135 84.0035 116.249 83.7445C116.364 83.4856 116.417 83.2035 116.404 82.9206C116.391 82.6377 116.312 82.3617 116.175 82.1142C115.765 81.2824 73.1054 38.5059 72.3327 38.1555C71.1794 37.6452 71.413 37.4692 65.7055 43.0023Z" fill="#252525"></path><path d="M41.2218 41.5272C41.0777 41.5719 38.3314 44.3601 35.1194 47.7264C30.1413 52.9682 29.2792 53.9255 29.3225 54.2527C29.3513 54.5295 33.0607 58.311 44.1412 69.305C55.9627 81.0429 59.0623 84.0357 59.6317 84.298C60.3035 84.6195 60.6092 84.6341 66.3916 84.7941C69.7204 84.8821 74.5384 84.9252 77.1074 84.8964C81.1945 84.8531 81.8374 84.8244 82.2469 84.6081C82.5796 84.4566 82.859 84.2084 83.049 83.8961C83.239 83.5838 83.3307 83.2215 83.3123 82.8564V82.1356L63.4276 62.1934C52.471 51.2297 43.2661 42.0607 42.9561 41.8415C42.7162 41.6487 42.4318 41.5188 42.1289 41.4639C41.826 41.409 41.5142 41.4308 41.2218 41.5272V41.5272Z" fill="#252525"></path><path d="M23.9508 58.7681C23.6884 58.8993 18.3587 64.0675 12.0962 70.2291C-0.313557 82.4341 0.110297 81.9526 0.284737 83.4274C0.285137 83.6213 0.327006 83.8129 0.407573 83.9892C0.488139 84.1655 0.605501 84.3224 0.751794 84.4496L1.13095 84.7855H23.3828L23.9234 84.4496C24.2117 84.2751 27.281 81.3255 30.7266 77.9088C36.1861 72.5069 37.0338 71.6016 37.1794 71.0768C37.5153 69.7923 37.5441 69.8212 31.6608 64.1123C28.7111 61.2506 26.0989 58.8127 25.835 58.6959C25.5356 58.5659 25.2109 58.505 24.8847 58.5175C24.5586 58.5299 24.2394 58.6156 23.9508 58.7681V58.7681Z" fill="#252525"></path><path d="M156.462 44.9534L149.956 35.627C149.683 35.6573 149.274 35.6725 148.728 35.6725H141.54V44.9534H135.625V13.107H148.728C151.488 13.107 153.884 13.562 155.916 14.4719C157.978 15.3818 159.556 16.686 160.647 18.3844C161.739 20.0829 162.285 22.0998 162.285 24.4352C162.285 26.8313 161.694 28.8937 160.511 30.6225C159.358 32.3513 157.69 33.6404 155.507 34.4896L162.831 44.9534H156.462ZM156.325 24.4352C156.325 22.4031 155.658 20.8412 154.324 19.7493C152.989 18.6574 151.033 18.1115 148.455 18.1115H141.54V30.8045H148.455C151.033 30.8045 152.989 30.2586 154.324 29.1667C155.658 28.0445 156.325 26.4673 156.325 24.4352Z" fill="#252525"></path><path d="M189.557 37.5832H173.634L170.495 44.9534H164.398L178.729 13.107H184.553L198.929 44.9534H192.742L189.557 37.5832ZM187.601 32.9428L181.595 19.0214L175.636 32.9428H187.601Z" fill="#252525"></path><path d="M212.851 45.4083C210.395 45.4083 208.014 45.0595 205.709 44.362C203.434 43.6644 201.629 42.7393 200.295 41.5868L202.342 36.9918C203.646 38.023 205.239 38.8723 207.119 39.5395C209.03 40.1764 210.941 40.4949 212.851 40.4949C215.217 40.4949 216.976 40.1158 218.129 39.3575C219.312 38.5993 219.903 37.5984 219.903 36.3549C219.903 35.445 219.569 34.7019 218.902 34.1256C218.265 33.519 217.446 33.0489 216.445 32.7153C215.445 32.3817 214.08 32.0025 212.351 31.5779C209.924 31.0017 207.953 30.4254 206.437 29.8491C204.95 29.2729 203.661 28.3781 202.569 27.1649C201.508 25.9214 200.977 24.2533 200.977 22.1605C200.977 20.4014 201.447 18.8091 202.388 17.3836C203.358 15.9277 204.799 14.7752 206.71 13.926C208.651 13.0767 211.016 12.6521 213.807 12.6521C215.748 12.6521 217.659 12.8947 219.539 13.38C221.419 13.8653 223.042 14.5629 224.407 15.4728L222.542 20.0677C221.147 19.2488 219.691 18.6271 218.174 18.2025C216.658 17.7778 215.187 17.5655 213.761 17.5655C211.426 17.5655 209.682 17.9598 208.529 18.7484C207.407 19.537 206.846 20.5834 206.846 21.8875C206.846 22.7974 207.164 23.5405 207.801 24.1168C208.469 24.693 209.303 25.148 210.304 25.4816C211.304 25.8153 212.669 26.1944 214.398 26.619C216.764 27.1649 218.705 27.7412 220.221 28.3478C221.738 28.9241 223.027 29.8188 224.089 31.032C225.18 32.2452 225.726 33.883 225.726 35.9454C225.726 37.7046 225.241 39.2969 224.271 40.7224C223.33 42.1479 221.89 43.2852 219.949 44.1345C218.007 44.9837 215.642 45.4083 212.851 45.4083Z" fill="#252525"></path><path d="M237.607 18.1115H227.052V13.107H254.076V18.1115H243.521V44.9534H237.607V18.1115Z" fill="#252525"></path><path d="M155.408 76.5348L155.378 61.619L147.979 74.0488H146.634L139.234 61.7067V76.5348H136.427V56.0621H138.825L147.365 70.4515L155.788 56.0621H158.186L158.215 76.5348H155.408Z" fill="#252525"></path><path d="M173.601 76.7688C171.535 76.7688 169.673 76.3203 168.015 75.4234C166.358 74.507 165.052 73.2494 164.096 71.6506C163.16 70.0518 162.692 68.2677 162.692 66.2984C162.692 64.3292 163.16 62.5451 164.096 60.9463C165.052 59.3475 166.358 58.0996 168.015 57.2027C169.673 56.2863 171.535 55.8281 173.601 55.8281C175.649 55.8281 177.501 56.2863 179.158 57.2027C180.816 58.0996 182.112 59.3475 183.048 60.9463C183.984 62.5256 184.452 64.3097 184.452 66.2984C184.452 68.2872 183.984 70.081 183.048 71.6798C182.112 73.2592 180.816 74.507 179.158 75.4234C177.501 76.3203 175.649 76.7688 173.601 76.7688ZM173.601 74.1658C175.103 74.1658 176.448 73.8246 177.637 73.1422C178.846 72.4598 179.792 71.5239 180.474 70.3345C181.176 69.1256 181.527 67.7803 181.527 66.2984C181.527 64.8166 181.176 63.481 180.474 62.2916C179.792 61.0828 178.846 60.1371 177.637 59.4547C176.448 58.7723 175.103 58.4311 173.601 58.4311C172.1 58.4311 170.735 58.7723 169.507 59.4547C168.298 60.1371 167.343 61.0828 166.641 62.2916C165.958 63.481 165.617 64.8166 165.617 66.2984C165.617 67.7803 165.958 69.1256 166.641 70.3345C167.343 71.5239 168.298 72.4598 169.507 73.1422C170.735 73.8246 172.1 74.1658 173.601 74.1658Z" fill="#252525"></path><path d="M202.697 65.9182C203.887 66.2497 204.823 66.8541 205.505 67.7315C206.187 68.5894 206.529 69.6813 206.529 71.0072C206.529 72.7815 205.856 74.1463 204.511 75.1017C203.185 76.0571 201.245 76.5348 198.69 76.5348H188.922V56.0621H198.106C200.445 56.0621 202.249 56.53 203.516 57.4659C204.803 58.4018 205.446 59.6984 205.446 61.3558C205.446 62.4281 205.193 63.3543 204.686 64.1342C204.199 64.9141 203.536 65.5088 202.697 65.9182ZM191.847 58.4311V64.9823H197.842C199.344 64.9823 200.494 64.7094 201.293 64.1634C202.112 63.598 202.522 62.7791 202.522 61.7067C202.522 60.6343 202.112 59.8252 201.293 59.2792C200.494 58.7138 199.344 58.4311 197.842 58.4311H191.847ZM198.573 74.1658C200.231 74.1658 201.479 73.8928 202.317 73.3469C203.155 72.801 203.575 71.9431 203.575 70.7732C203.575 68.492 201.908 67.3513 198.573 67.3513H191.847V74.1658H198.573Z" fill="#252525"></path><path d="M211.057 56.0621H213.982V76.5348H211.057V56.0621Z" fill="#252525"></path><path d="M220.111 56.0621H223.036V73.9903H234.12V76.5348H220.111V56.0621Z" fill="#252525"></path><path d="M252.334 73.9903V76.5348H237.476V56.0621H251.924V58.6066H240.401V64.8946H250.666V67.3806H240.401V73.9903H252.334Z" fill="#252525"></path></svg>